<svg preserveAspectRatio="none" width="100%" height="100%" overflow="visible" style="display: block;" viewBox="0 0 196.087 14" fill="none" xmlns="http://www.w3.org/2000/svg">
<g id="Group 2085664033">
<path id="Vector" d="M31.5325 6.89776L29.5213 5.91232C28.6165 5.46999 26.9071 4.86697 26.9071 3.31826C26.9071 2.39273 27.6109 0.98511 29.7425 0.98511C31.4726 0.98511 32.6389 2.33281 32.878 4.32386H33.0992V1.82945C32.1288 1.14132 30.9698 0.770104 29.7806 0.765625C27.6087 0.765625 25.9172 1.99239 25.9172 3.84513C25.9172 5.49407 27.0633 6.45936 28.411 7.10325L30.5426 8.12901C31.8702 8.77234 32.5538 9.51647 32.5538 10.5825C32.5538 11.9297 31.7296 13.1368 29.738 13.1368C27.7464 13.1368 26.3595 12.073 26.1182 9.81826H25.9015V12.3938C27.2487 13.0377 28.6367 13.3597 29.7649 13.3597C32.0605 13.3597 33.7671 12.2735 33.7671 10.1419C33.7649 8.38545 32.7772 7.50079 31.5325 6.89776Z" fill="var(--fill-0, #F5F5F2)"/>
<path id="Vector_2" d="M73.0231 1.20459C74.3708 1.20459 74.8938 1.48454 74.8938 2.7533V10.6172L67.4122 0.961589H64.6771V1.20291C66.0242 1.20291 66.5472 1.62564 66.5472 3.57637V11.2404C66.5472 12.5075 66.0242 12.7891 64.6771 12.7891V13.0305H68.6995V12.7891C67.3518 12.7891 66.8288 12.5092 66.8288 11.2404V2.61276L74.9341 13.0305H75.1754V2.7533C75.1754 1.48622 75.6984 1.20459 77.0455 1.20459V0.961589H73.0231V1.20459Z" fill="var(--fill-0, #F5F5F2)"/>
<path id="Vector_3" d="M57.9597 0.761068C54.5605 0.761068 51.8052 3.5567 51.8052 7.01583C51.8052 10.475 54.5605 13.2907 57.9597 13.2907C61.3589 13.2907 64.1137 10.4951 64.1137 7.01583C64.1137 3.53654 61.3382 0.761068 57.9597 0.761068ZM57.9597 13.0696C55.4659 13.0696 53.3337 10.2941 53.3337 6.99567C53.3337 3.69724 55.4659 0.982232 57.9597 0.982232C60.4535 0.982232 62.5851 3.69724 62.5851 6.99567C62.5851 10.2941 60.4535 13.0696 57.9597 13.0696Z" fill="var(--fill-0, #F5F5F2)"/>
<path id="Vector_4" d="M20.7727 12.7891H18.621C17.2733 12.7891 16.7503 12.5092 16.7503 11.2404V6.97671H19.4256C20.6927 6.97671 20.9743 7.49966 20.9743 8.6458H21.2156V5.04893H20.9743C20.9743 6.19507 20.6943 6.71803 19.4256 6.71803H16.7503V2.7533C16.7503 1.48622 17.2733 1.20459 18.621 1.20459H20.5712C21.8589 1.20459 22.9043 2.02934 23.3063 4.04054H23.5678L22.9228 0.961589H13.3483V1.20291C14.696 1.20291 15.219 1.62564 15.219 3.57637V11.2404C15.219 12.5075 14.696 12.7891 13.3483 12.7891V13.0305H23.126L23.7694 9.95095H23.5079C23.1059 11.9644 22.06 12.7891 20.7727 12.7891Z" fill="var(--fill-0, #F5F5F2)"/>
<path id="Vector_5" d="M43.2575 11.2404L38.491 0.961589H35.5145V1.20291C36.8622 1.20291 37.3852 1.62564 37.3852 3.57637V11.2404C37.3852 12.5075 36.8622 12.7891 35.5145 12.7891V13.0305H39.5369V12.7891C38.1898 12.7891 37.6668 12.5092 37.6668 11.2404V2.83393L42.4132 13.0305H42.7351L47.622 2.81377V11.2404C47.622 12.5075 47.0991 12.7891 45.7514 12.7891V13.0305H51.0207V12.7891C49.6736 12.7891 49.1506 12.5092 49.1506 11.2404V3.57805C49.1506 1.62732 49.6736 1.20459 51.0207 1.20459V0.961589H48.1853L43.2575 11.2404Z" fill="var(--fill-0, #F5F5F2)"/>
<path id="Vector_6" d="M5.22956 0.961589H0V1.20291C1.3477 1.20291 1.87066 1.62564 1.87066 3.57637V11.2404C1.87066 12.5075 1.3477 12.7891 0 12.7891V13.0305H5.50952C9.57223 13.0305 12.187 10.9185 12.187 6.99686C12.1853 3.29642 8.92497 0.961589 5.22956 0.961589ZM5.75196 12.7875C3.78107 12.7875 3.40034 12.4252 3.40034 11.1984V2.73315C3.40034 1.46607 3.88298 1.18443 5.39138 1.18443C7.84491 1.18443 10.6204 3.43695 10.6204 7.03718C10.6165 10.3155 8.40426 12.7891 5.74916 12.7891L5.75196 12.7875Z" fill="var(--fill-0, #F5F5F2)"/>
<path id="Vector_7" d="M143.354 11.2404L138.587 0.961589H135.611V1.20291C136.958 1.20291 137.481 1.62564 137.481 3.57637V11.2404C137.481 12.5075 136.958 12.7891 135.611 12.7891V13.0305H139.633V12.7891C138.285 12.7891 137.762 12.5092 137.762 11.2404V2.83393L142.509 13.0305H142.831L147.718 2.81377V11.2404C147.718 12.5075 147.195 12.7891 145.848 12.7891V13.0305H151.117V12.7891C149.769 12.7891 149.246 12.5092 149.246 11.2404V3.57805C149.246 1.62732 149.769 1.20459 151.117 1.20459V0.961589H148.281L143.354 11.2404Z" fill="var(--fill-0, #F5F5F2)"/>
<path id="Vector_8" d="M180.963 12.7891H178.811C177.464 12.7891 176.941 12.5092 176.941 11.2404V6.97671H179.615C180.882 6.97671 181.164 7.49966 181.164 8.6458H181.405V5.04893H181.164C181.164 6.19507 180.884 6.71803 179.615 6.71803H176.941V2.7533C176.941 1.48622 177.464 1.20459 178.811 1.20459H180.762C182.049 1.20459 183.095 2.02934 183.497 4.04054H183.758L183.113 0.961589H173.539V1.20291C174.886 1.20291 175.409 1.62564 175.409 3.57637V11.2404C175.409 12.5075 174.886 12.7891 173.539 12.7891V13.0305H183.313L183.957 9.95095H183.695C183.296 11.9644 182.25 12.7891 180.963 12.7891Z" fill="var(--fill-0, #F5F5F2)"/>
<path id="Vector_9" d="M169.982 6.89776L167.971 5.91232C167.066 5.46999 165.356 4.86697 165.356 3.31826C165.356 2.39273 166.06 0.98511 168.192 0.98511C169.922 0.98511 171.088 2.33281 171.328 4.32386H171.549V1.82945C170.579 1.14132 169.42 0.770104 168.231 0.765625C166.058 0.765625 164.367 1.99239 164.367 3.84513C164.367 5.49407 165.513 6.45936 166.861 7.10325L168.993 8.12901C170.32 8.77234 171.004 9.51647 171.004 10.5825C171.004 11.9297 170.18 13.1368 168.189 13.1368C166.198 13.1368 164.81 12.073 164.568 9.81826H164.347V12.3938C165.695 13.0377 167.082 13.3597 168.211 13.3597C170.503 13.3597 172.213 12.2735 172.213 10.1419C172.214 8.38545 171.229 7.50079 169.982 6.89776Z" fill="var(--fill-0, #F5F5F2)"/>
<path id="Vector_10" d="M157.794 0.961589H152.766V1.20291C154.114 1.20291 154.637 1.62564 154.637 3.57637V11.2404C154.637 12.5075 154.114 12.7891 152.766 12.7891V13.0305H158.236V12.7891C156.688 12.7891 156.165 12.5092 156.165 11.2404V7.74098H157.793C160.992 7.74098 162.721 6.51422 162.721 4.36248C162.721 2.21075 160.992 0.961589 157.794 0.961589ZM157.794 7.51814H156.165V2.73315C156.165 1.46607 156.688 1.18443 157.794 1.18443C160.228 1.18443 161.193 2.77346 161.193 4.46271C161.193 6.15196 160.228 7.51982 157.794 7.51982V7.51814Z" fill="var(--fill-0, #F5F5F2)"/>
<path id="Vector_11" d="M192.849 0.961589V1.20291C194.197 1.20291 194.337 1.44423 193.955 2.10829L191.079 6.99518L188.062 2.10829C187.558 1.30369 188.123 1.20291 189.169 1.20291V0.961589H184.463V1.20291C185.609 1.20291 185.931 1.58533 186.675 2.73147L189.671 7.41736V11.2387C189.671 12.5058 189.148 12.7875 187.801 12.7875V13.0288H193.07V12.7875C191.723 12.7875 191.2 12.5075 191.2 11.2387V7.25834L193.875 2.73315C194.538 1.60717 194.938 1.20459 196.087 1.20459V0.961589H192.849Z" fill="var(--fill-0, #F5F5F2)"/>
<path id="Vector_12" d="M83.4008 0.961589H78.1718V1.20291C79.5189 1.20291 80.0419 1.62564 80.0419 3.57637V11.2404C80.0419 12.5075 79.5189 12.7891 78.1718 12.7891V13.0305H83.6824C87.7446 13.0305 90.3594 10.9185 90.3594 6.99686C90.3594 3.29642 87.1012 0.961589 83.4008 0.961589ZM83.9238 12.7875C81.9529 12.7875 81.5721 12.4252 81.5721 11.1984V2.73315C81.5721 1.46607 82.0548 1.18443 83.5632 1.18443C86.0167 1.18443 88.7922 3.43695 88.7922 7.03718C88.7905 10.3155 86.5783 12.7891 83.9238 12.7891V12.7875Z" fill="var(--fill-0, #F5F5F2)"/>
<path id="Vector_13" d="M131.005 12.7897H128.853C127.506 12.7897 126.983 12.5097 126.983 11.241V6.97727H129.658C130.925 6.97727 131.207 7.50022 131.207 8.64636H131.448V5.04949H131.21C131.21 6.19563 130.93 6.71859 129.661 6.71859H126.986V2.75386C126.986 1.48678 127.509 1.20515 128.856 1.20515H130.807C132.095 1.20515 133.14 2.0299 133.542 4.0411H133.804L133.16 0.961589H123.586V1.20291C124.933 1.20291 125.456 1.62564 125.456 3.57637V11.241C125.456 12.5081 124.933 12.7897 123.586 12.7897V13.031H133.36L134.003 9.95151H133.743C133.337 11.9649 132.292 12.7897 131.005 12.7897Z" fill="var(--fill-0, #F5F5F2)"/>
<path id="Vector_14" d="M106.147 2.69261C105.665 2.69261 105.322 3.03471 105.322 3.59798C105.322 4.42217 106.386 5.04591 106.386 6.09183C106.386 7.41881 104.053 8.26372 101.739 8.26372C100.753 8.26372 100.19 8.04255 99.6069 8.04255C98.3801 8.04255 97.5554 8.98768 97.5554 10.0538C97.5554 11.1198 98.4406 11.8455 99.4664 11.8455C101.115 11.8455 102.602 9.69317 103.569 9.69317C103.891 9.69317 104.073 9.93449 104.073 10.3774C104.073 11.785 102.484 13.7962 99.9098 13.7962C97.0739 13.7962 94.9221 11.8052 94.9221 9.7738C94.9221 7.74244 96.2894 6.91825 97.7379 6.91825C99.0649 6.91825 100.09 7.62262 101.277 7.62262C102.605 7.62262 104.113 6.83875 104.113 5.59127C104.113 4.7262 103.429 4.32419 102.726 4.32419C101.76 4.32419 100.956 4.84714 100.03 4.84714C99.1047 4.84714 97.5565 4.10302 97.5565 2.69485C97.5565 1.28667 98.9042 0.201008 100.714 0.201008C101.518 0.201008 102.242 0.502799 102.242 1.10638C102.242 1.70997 101.72 2.27268 101.72 2.83595C101.72 3.3589 102.041 3.68029 102.524 3.68029C103.148 3.68029 103.429 3.13718 103.429 2.45353C103.429 0.804591 102.203 0 100.392 0C98.7833 0 96.0683 0.783875 96.0683 3.07951C96.0683 4.52744 97.1948 5.31187 98.6629 5.31187C100.03 5.31187 100.674 4.84938 101.479 4.84938C102.082 4.84938 102.585 5.15062 102.585 5.89474C102.585 6.63886 101.82 7.36338 100.956 7.36338C99.3667 7.36338 98.2004 5.93505 96.6114 5.93505C95.0224 5.93505 93.3936 7.32307 93.3936 9.41433C93.3936 11.9082 96.5106 14 99.7687 14C103.288 14 105.601 11.7475 105.601 10.0179C105.601 9.37458 105.119 8.972 104.555 8.972C102.846 8.972 101.881 11.1041 100.372 11.1041C99.5274 11.1041 99.1254 10.4602 99.1254 9.91713C99.1254 9.1131 99.7486 8.52968 100.956 8.52968C104.053 8.52968 107.25 7.78556 107.25 4.42665C107.253 3.43673 106.871 2.69261 106.147 2.69261Z" fill="var(--fill-0, #F5F5F2)"/>
<path id="Vector_15" d="M115.278 0.961589H110.049V1.20291C111.396 1.20291 111.919 1.62564 111.919 3.57637V11.2404C111.919 12.5075 111.396 12.7891 110.049 12.7891V13.0305H115.559C119.622 13.0305 122.237 10.9185 122.237 6.99686C122.237 3.29642 118.979 0.961589 115.278 0.961589ZM115.801 12.7875C113.83 12.7875 113.449 12.4252 113.449 11.1984V2.73315C113.449 1.46607 113.932 1.18443 115.44 1.18443C117.894 1.18443 120.669 3.43695 120.669 7.03718C120.668 10.3155 118.456 12.7891 115.801 12.7891V12.7875Z" fill="var(--fill-0, #F5F5F2)"/>
</g>
</svg>
