<svg preserveAspectRatio="none" width="100%" height="100%" overflow="visible" style="display: block;" viewBox="0 0 60 11.5" fill="none" xmlns="http://www.w3.org/2000/svg">
<g id="Frame">
<path id="Vector" d="M6 8.635L9.09 10.5L8.27 6.985L11 4.62L7.405 4.315L6 1L4.595 4.315L1 4.62L3.73 6.985L2.91 10.5L6 8.635Z" fill="#140803"/>
<path id="Vector_2" d="M18 8.635L21.09 10.5L20.27 6.985L23 4.62L19.405 4.315L18 1L16.595 4.315L13 4.62L15.73 6.985L14.91 10.5L18 8.635Z" fill="#140803"/>
<path id="Vector_3" d="M30 8.635L33.09 10.5L32.27 6.985L35 4.62L31.405 4.315L30 1L28.595 4.315L25 4.62L27.73 6.985L26.91 10.5L30 8.635Z" fill="#140803"/>
<path id="Vector_4" d="M42 8.635L45.09 10.5L44.27 6.985L47 4.62L43.405 4.315L42 1L40.595 4.315L37 4.62L39.73 6.985L38.91 10.5L42 8.635Z" fill="#140803"/>
<path id="Vector_5" d="M54 8.635L57.09 10.5L56.27 6.985L59 4.62L55.405 4.315L54 1L52.595 4.315L49 4.62L51.73 6.985L50.91 10.5L54 8.635Z" fill="#140803"/>
</g>
</svg>
