<svg width="86.2501" height="21.947" overflow="visible" style="display: block;" viewBox="0 0 86.2501 21.947" fill="none" xmlns="http://www.w3.org/2000/svg">
<g id="Group">
<path id="Vector" fill-rule="evenodd" clip-rule="evenodd" d="M15.4624 20.4834C15.2978 21.1716 15.2751 21.2409 15.1081 21.2409H13.2315V21.3756H17.4819V21.2409H15.5364C15.4106 21.2409 15.4316 21.1476 15.5846 20.5186L16.892 15.2176H22.0674L23.6475 21.2409H21.545V21.3756H28.6175V21.2409H26.4188L20.5537 0H20.518L15.4624 20.4834ZM19.3942 5.06514L22.0272 15.0836H16.929L19.3942 5.06514ZM76.3779 10.7777H77.9958C79.4292 10.7777 81.5431 11.4223 81.5431 14.0413V18.7841C81.5431 20.7248 82.5687 21.947 84.378 21.947C86.2794 21.947 86.25 19.9419 86.25 18.4954V16.971H86.1215V18.4954C86.1215 20.1407 85.9346 21.5695 85.007 21.5695C84.185 21.5695 84.0082 21.0371 84.0082 18.8049V14.0413C84.0082 11.8372 82.2974 11.0294 79.6552 10.7097C82.9459 10.3009 84.185 8.10649 84.185 5.67991C84.185 2.09062 82.5978 0.581869 78.5103 0.581869L72.0307 0.58043V0.715308H73.732C73.8549 0.715308 73.913 0.75129 73.913 0.824075V21.1313C73.913 21.2045 73.8549 21.2409 73.732 21.2409H72.0307V21.3756H77.9893V21.2409H76.5581C76.435 21.2409 76.3779 21.2045 76.3779 21.1313V10.7777ZM76.3779 0.716542H78.1244C80.8146 0.716542 81.5754 2.85321 81.5754 5.67991C81.5754 8.32649 80.8146 10.6431 78.1244 10.6431H76.3779V0.716542ZM33.0153 21.1348C32.9943 21.1831 33.0181 21.2409 33.1175 21.2409L37.7601 21.2421C39.1894 21.2421 41.0343 19.0347 41.0343 11.9217V11.1811H41.1635V21.3764H30.0787L38.4764 0.820374C38.4969 0.772673 38.4729 0.715308 38.3736 0.715308L33.4446 0.716542C32.1508 0.716542 30.272 3.18301 30.272 10.0373V10.7777H30.143V0.581869H41.4214L33.0153 21.1348ZM5.57134 0.716542C8.26211 0.716542 9.35763 2.85321 9.35763 5.67991C9.35763 8.32649 8.26211 10.441 5.57134 10.441H4.34705V0.716542H5.57134ZM0 0.58043V0.715308H1.70157C1.82463 0.715308 1.88212 0.75129 1.88212 0.824075V21.1313C1.88212 21.2045 1.82463 21.2409 1.70157 21.2409H0V21.3756L6.34494 21.3764C10.4317 21.3764 12.6121 19.5987 12.6121 16.0104C12.6121 13.5255 11.3234 10.9963 7.25558 10.4926C10.7111 10.1552 11.9033 7.88875 11.9033 5.67991C11.9033 2.44961 10.0452 0.581869 5.95824 0.581869L0 0.58043ZM5.57134 10.5756C8.60549 10.5756 9.80891 12.7349 9.80891 16.0104C9.80891 18.8363 8.73465 21.2421 6.21578 21.2421L4.5276 21.2409C4.40454 21.2409 4.34705 21.2045 4.34705 21.1313V10.574L5.57134 10.5756ZM44.7219 20.4834C44.5565 21.1716 44.5339 21.2409 44.3673 21.2409H42.4907V21.3756H46.7415V21.2409H44.7954C44.6704 21.2409 44.6908 21.1476 44.8446 20.5186L46.1514 15.2176H51.3268L52.9073 21.2409H50.804V21.3756H57.8771V21.2409H55.6776L49.8129 0H49.7768L44.7219 20.4834ZM48.6537 5.06514L51.286 15.0836H46.1878L48.6537 5.06514Z" fill="var(--fill-0, #F5F5F2)" fill-opacity="0.5"/>
<path id="Vector_2" fill-rule="evenodd" clip-rule="evenodd" d="M58.8385 20.4834C58.6733 21.1716 58.6515 21.2409 58.4847 21.2409H56.6077V21.3756H60.8583V21.2409H58.9124C58.7873 21.2409 58.808 21.1476 58.9612 20.5186L60.2686 15.2176H65.4438L67.024 21.2409H64.921V21.3756H71.9939V21.2409H69.7951L63.9304 4.87421e-10H63.8944L58.8385 20.4834ZM62.7709 5.06514L65.4036 15.0836H60.3048L62.7709 5.06514ZM54.2904 2.73273C54.2904 2.74095 54.2977 2.74404 54.3115 2.74404H54.5988V2.79194H53.618V2.74404H53.8742C53.8886 2.74404 53.8949 2.74095 53.8949 2.73273V1.69585H52.9583V2.73273C52.9583 2.74095 52.9647 2.74404 52.9787 2.74404H53.2349V2.79194H52.2545V2.74404H52.5418C52.5558 2.74404 52.5623 2.74095 52.5623 2.73273V0.698037C52.5623 0.690636 52.5558 0.68714 52.5418 0.68714H52.2545V0.639028H53.2349V0.68714H52.9787C52.9647 0.68714 52.9583 0.690636 52.9583 0.698037V1.64836H53.8949V0.698037C53.8949 0.690636 53.8886 0.68714 53.8742 0.68714H53.618V0.639028H54.5988V0.68714H54.3115C54.2977 0.68714 54.2904 0.690636 54.2904 0.698037V2.73273ZM57.0135 1.84903C56.9233 1.84903 56.8629 1.80544 56.8629 1.73204C56.8629 1.66563 56.9011 1.66789 56.9011 1.61916C56.9011 1.56981 56.8707 1.5472 56.8221 1.5472C56.7719 1.5472 56.6823 1.56467 56.6144 1.78015V2.73273C56.6144 2.74095 56.6207 2.74404 56.6349 2.74404H56.8109V2.79194H56.1206V2.74404H56.296C56.3102 2.74404 56.3165 2.74095 56.3165 2.73273V1.55686C56.3165 1.54966 56.3102 1.54555 56.296 1.54555H56.1206V1.49764H56.6057L56.6144 1.5069V1.70778C56.6662 1.54041 56.778 1.47133 56.9095 1.47133C57.0696 1.47133 57.1736 1.55912 57.1736 1.69503C57.1736 1.78077 57.1102 1.84903 57.0135 1.84903ZM59.6027 2.81806C59.8273 2.81806 60.0081 2.70436 60.1288 2.53021L60.0939 2.50101C59.9811 2.66776 59.8299 2.77097 59.6027 2.77097C59.5196 2.77097 59.4526 2.75452 59.3953 2.70148C59.3008 2.61286 59.2713 2.50903 59.2713 2.1451C59.2713 2.11817 59.2715 2.11077 59.2721 2.08609H60.1552L60.1638 2.07766C60.1638 1.83196 60.0016 1.47133 59.6027 1.47133C59.2345 1.47133 58.9578 1.77336 58.9578 2.1451C58.9578 2.51622 59.2345 2.81806 59.6027 2.81806ZM59.7665 1.58893C59.8342 1.66871 59.8563 1.79207 59.8616 2.03819H59.2729C59.2802 1.79207 59.3099 1.66871 59.3953 1.58893C59.4526 1.53568 59.5196 1.51923 59.6027 1.51923C59.6745 1.51923 59.721 1.53568 59.7665 1.58893ZM55.2091 2.75884C55.3671 2.75884 55.4694 2.64144 55.4694 2.52918V2.08116C55.396 2.12536 55.2895 2.12536 55.1954 2.14305C55.0896 2.1632 54.9762 2.22097 54.9762 2.49978C54.9762 2.71258 55.1097 2.75884 55.2091 2.75884ZM54.8384 1.7345C54.8384 1.62697 54.9682 1.47133 55.2188 1.47133C55.586 1.47133 55.7677 1.64034 55.7677 2.01989V2.63733C55.7677 2.70991 55.801 2.73993 55.8495 2.73993C55.9062 2.73993 55.9516 2.69099 55.9638 2.66138L55.994 2.69264C55.9755 2.7465 55.8813 2.81806 55.7616 2.81806C55.6258 2.81806 55.5063 2.73602 55.4852 2.62211C55.4419 2.75185 55.323 2.81806 55.1519 2.81806C54.8681 2.81806 54.6858 2.71484 54.6858 2.49978C54.6858 2.18232 55.0105 2.1085 55.1353 2.09802C55.3113 2.0826 55.4694 2.07047 55.4694 2.0055V1.82847C55.4694 1.61176 55.3789 1.51923 55.2188 1.51923C55.1387 1.51923 55.0888 1.55748 55.0888 1.64712C55.0888 1.69811 55.1142 1.71374 55.1142 1.7635C55.1142 1.81921 55.0719 1.87226 54.9715 1.87226C54.876 1.87226 54.8384 1.80318 54.8384 1.7345ZM58.2937 1.5875C58.2404 1.53568 58.1681 1.51923 58.0909 1.51923C57.9842 1.51923 57.8861 1.59284 57.8182 1.67591V2.58079C57.8592 2.68852 57.9779 2.77097 58.0909 2.77097C58.1681 2.77097 58.2404 2.75493 58.2937 2.7025C58.3817 2.61553 58.441 2.464 58.441 2.15292C58.441 1.84163 58.3817 1.67426 58.2937 1.5875ZM58.744 2.15292C58.744 2.48908 58.4705 2.81806 58.0909 2.81806C57.9747 2.81806 57.8861 2.74239 57.8182 2.6692V3.67194C57.8182 3.67894 57.8253 3.68243 57.8391 3.68243H58.0145V3.73034H57.3248V3.68243H57.5C57.514 3.68243 57.5205 3.67894 57.5205 3.67194V1.55686C57.5205 1.54966 57.514 1.54555 57.5 1.54555H57.3248V1.49764H57.8097L57.8182 1.5069V1.62224C57.8861 1.54843 57.9747 1.47133 58.0909 1.47133C58.4705 1.47133 58.744 1.81634 58.744 2.15292ZM62.5094 1.50751C62.5421 1.50751 62.5602 1.49353 62.5638 1.48037H62.6136V1.80112H62.5638C62.5638 1.61464 62.4037 1.51923 62.2521 1.51923C62.0952 1.51923 62.0194 1.59284 62.0194 1.70901C62.0194 1.85849 62.1221 1.93456 62.3555 2.00282C62.5998 2.07458 62.7607 2.19918 62.7607 2.39368C62.7607 2.63979 62.5703 2.81806 62.2657 2.81806C62.0847 2.81806 62.0064 2.73006 61.9126 2.73006C61.8917 2.72931 61.8711 2.73523 61.8535 2.74702C61.8359 2.7588 61.8221 2.77591 61.814 2.79606H61.7636L61.7809 2.36942H61.8313C61.8229 2.59312 62.0233 2.77097 62.2657 2.77097C62.4488 2.77097 62.5525 2.68338 62.5525 2.52034C62.5525 2.3577 62.4299 2.29293 62.206 2.22159C61.9871 2.1525 61.8347 2.05957 61.8347 1.85849C61.8347 1.62019 62.0558 1.47133 62.2521 1.47133C62.3801 1.47133 62.3921 1.50751 62.5094 1.50751ZM61.5996 1.05785C61.5996 0.971084 61.6701 0.900355 61.7571 0.900355C61.8514 0.900355 61.9213 0.971907 61.9213 1.07677C61.9213 1.23159 61.7874 1.41335 61.6037 1.52869L61.5744 1.49415C61.7071 1.41396 61.8026 1.31507 61.8591 1.17464C61.8347 1.2028 61.8008 1.21576 61.7571 1.21576C61.6701 1.21576 61.5996 1.14544 61.5996 1.05785ZM61.2013 1.84903C61.1115 1.84903 61.0506 1.80544 61.0506 1.73204C61.0506 1.66563 61.089 1.66789 61.089 1.61916C61.089 1.56981 61.0583 1.5472 61.0095 1.5472C60.9595 1.5472 60.8697 1.56467 60.8021 1.78015V2.73273C60.8021 2.74095 60.8079 2.74404 60.822 2.74404H60.9979V2.79194H60.3076V2.74404H60.4838C60.4976 2.74404 60.5042 2.74095 60.5042 2.73273V1.55686C60.5042 1.54966 60.4976 1.54555 60.4838 1.54555H60.3076V1.49764H60.7931L60.8021 1.5069V1.70778C60.8543 1.54041 60.9656 1.47133 61.0981 1.47133C61.2566 1.47133 61.3619 1.55912 61.3619 1.69503C61.3619 1.78077 61.2973 1.84903 61.2013 1.84903Z" fill="var(--fill-0, #F5F5F2)" fill-opacity="0.5"/>
</g>
</svg>
