<svg width="79.2" height="22" overflow="visible" style="display: block;" viewBox="0 0 79.2 22" fill="none" xmlns="http://www.w3.org/2000/svg">
<g id="Tatler_logo 2" clip-path="url(#clip0_0_9)">
<path id="Vector" d="M78.2623 21.6447L74.3309 8.23405C75.5359 7.8507 76.7377 7.128 77.3597 6.1479C78.0945 4.9907 78.2122 3.26425 76.9065 2.1747C75.6916 1.1605 73.6137 1.20285 72.6891 1.20285H67.9608V1.5565H68.8754V21.6447H67.9723V22H72.6996V21.6447H71.7965V1.5565H72.6891C75.3836 1.56695 76.3004 4.93625 74.9749 6.7496C73.8705 8.261 71.8416 8.5811 71.8416 8.5811L75.372 21.6447H74.4211V22H79.1934V21.6447H78.2623ZM60.9235 1.199H54.5457V1.55375H55.4499V21.6436H54.5457V22H61.6V17.6369H61.2403V21.6436H58.3732V9.0299H60.0072V11.5495H60.3669V6.15945H60.0072V8.67295H58.3732V1.5543H61.2403V5.56105H61.6V1.199H60.9235ZM41.2555 1.199V1.55375H42.1559V21.6436H41.2539V22H48.3093V17.6369H47.9507V21.6436H45.0796V1.55375H45.9828V1.199H41.2555ZM26.5155 1.199V5.5605H26.8741V1.5675H28.903V21.6436H28.0011V22H32.7289V21.6436H31.8269V1.56805H33.8574V5.56105H34.2155V1.199H26.5155ZM15.6607 8.8935L16.5457 14.1675H14.7197L15.6607 8.8935ZM13.0334 21.6431H12.1242V22H14.3385V21.6447H13.3925L14.6503 14.5255H16.6056L17.7996 21.6436H16.819V22H21.5463V21.6436H20.7196L16.9191 0.55H16.747L13.0334 21.6431ZM0 1.199V5.5605H0.3586V1.5675H2.38865V21.6436H1.4861V22H6.2128V21.6436H5.31135V1.56805H7.3414V5.56105H7.7V1.199H0Z" fill="var(--fill-0, #F5F5F2)" fill-opacity="0.5"/>
</g>
<defs>
<clipPath id="clip0_0_9">
<rect width="79.2" height="22" fill="white"/>
</clipPath>
</defs>
</svg>
