<svg width="80.0741" height="20.9264" overflow="visible" style="display: block;" viewBox="0 0 80.0741 20.9264" fill="none" xmlns="http://www.w3.org/2000/svg">
<g id="g3863">
<path id="path3064" d="M23.3543 0.0909635C18.6873 0.125053 14.8698 5.42442 14.8698 10.0467C14.8698 14.9108 17.6682 20.8444 23.3543 20.8251C29.0404 20.8058 31.9917 14.4179 31.9917 10.0467C31.9917 5.21831 28.0213 0.0568746 23.3543 0.0909635ZM23.3543 0.272264C27.2604 0.272264 28.3142 4.67969 28.3142 10.0467C28.3142 17.1283 27.043 20.622 23.3543 20.6154C19.6656 20.6087 18.4655 17.7493 18.4655 10.0467C18.4655 5.22162 19.4482 0.272264 23.3543 0.272264Z" fill="var(--fill-0, #F5F5F2)"/>
<path id="path3060" d="M33.5327 10.1774C33.5118 4.91796 37.632 0.259127 41.1197 0.0279803C42.3795 -0.063206 43.999 0.526205 44.9444 0.94608C45.6309 1.25097 47.0323 0.809652 47.2812 2.43284e-08H47.4169V7.16432H47.2812C47.2812 6.8589 45.9825 0.208103 41.1197 0.208103C37.5279 0.208103 37.1809 6.6606 37.1809 10.1774C37.1809 13.6941 37.2856 20.6561 41.4771 20.6561C43.5075 20.6561 45.0105 19.7486 45.4001 17.9125V12.3296H43.6958V12.0918H50.3021V12.3296H48.6726V20.4917H48.54C48.54 20.4917 48.2751 19.314 46.9309 19.318C45.2129 19.323 43.5927 20.8479 41.6176 20.8293C36.3944 20.7803 33.5537 15.4368 33.5327 10.1774Z" fill="var(--fill-0, #F5F5F2)"/>
<path id="path3058" d="M2.05699 0.796659H0V0.56043H7.20574V0.796659H5.39799L10.5467 15.0817C12.1567 10.0176 13.4039 6.27422 15.0824 0.796659H13.2943V0.56043H17.099V0.796659H15.3664L9.10869 20.727L2.05699 0.796659Z" fill="var(--fill-0, #F5F5F2)"/>
<path id="path3054" d="M51.3109 15.8475L51.2783 0.773714H49.3204V0.547918H56.5338V0.773714H54.577L54.6205 17.3013C55.0537 19.1939 55.8238 20.6299 58.4551 20.6513C61.0864 20.6727 62.8752 19.061 63.5399 16.8585V0.773714H61.3001L61.3001 0.55457H79.6325L79.6707 7.7906H79.4945C79.1545 3.11856 77.39 1.35287 74.304 0.837757C73.2421 0.660504 72.1281 0.791904 70.7198 0.780719V10.0158C71.9462 10.1126 73.2525 10.0334 74.1328 9.26093C74.9333 8.55848 75.1596 6.93552 75.2184 6.27619H75.3734V14.3171H75.2057C75.1572 14.3171 75.0928 12.2992 74.1328 11.3419C73.1664 10.3783 71.9359 10.1414 70.7198 10.371V20.2361C72.4376 20.2361 73.8068 20.3847 74.9959 20.0516C78.6104 19.0392 79.8828 15.9238 79.8731 12.7991H80.0741V20.4696H65.6946V20.2361H67.3205V0.773714H63.8076V16.8585C63.4095 18.3975 61.9543 20.9436 58.2249 20.9263C54.7574 20.9101 51.3184 19.313 51.3109 15.8475Z" fill="var(--fill-0, #F5F5F2)"/>
</g>
</svg>
