<svg width="122.513" height="20" overflow="visible" style="display: block;" viewBox="0 0 122.513 20" fill="none" xmlns="http://www.w3.org/2000/svg">
<g id="The_Telegraph_logo 1" clip-path="url(#clip0_0_4)">
<path id="Vector" d="M15.8115 18.2199C18.0105 18.0105 20.2094 17.2775 20.2094 14.9738V7.53927L19.1623 6.49215L18.0105 7.53927V13.089L18.9529 13.9267L16.8586 15.8115H16.7539L14.6597 14.0314L15.1832 13.5079V2.19895C15.1832 1.36126 14.4503 0.942408 14.0314 0.837696V0.628272C14.2408 0.52356 14.555 0.418848 14.9738 0.418848C15.7068 0.418848 16.3351 0.837696 16.5445 1.36126H16.6492C17.0681 0.732984 17.801 0.418848 18.4293 0.418848C18.6387 0.418848 18.8482 0.418848 19.0576 0.52356V0.732984C18.7435 0.837696 18.1152 1.25654 18.1152 2.40838V7.12042L20.9424 4.50262H21.1518C21.3613 4.71204 22.5131 5.75916 22.8272 5.96859C22.9319 6.0733 23.0366 6.0733 23.2461 6.0733C23.4555 6.0733 23.6649 5.96859 23.8743 5.86387V6.17801C23.6649 6.38744 23.3508 6.70157 23.3508 7.22513V13.6126C23.3508 16.4398 20.2094 18.2199 16.0209 18.534V18.2199H15.8115ZM14.7644 0.732984C15.1832 1.04712 15.6021 1.36126 15.6021 2.09424V13.7173L15.1832 14.1361L16.9634 15.6021L17.4869 15.1832L16.1257 14.0314L16.3351 13.822V2.19895C16.2304 1.25654 15.3927 0.837696 14.7644 0.732984ZM19.6859 17.4869C20.5236 16.9634 21.3613 16.3351 21.3613 15.0785V7.12042L20.1047 5.75916L19.4764 6.28272L20.5236 7.43456V14.9738C20.6283 16.0209 20.2094 16.8586 19.6859 17.4869ZM24.9215 7.12042C26.178 6.49215 27.9581 5.44503 29.2147 4.50262H29.4241C30.2618 5.34031 31.4136 6.70157 32.4607 7.64398V7.8534L27.8534 10.7853V12.6702C28.2722 12.9843 29.6335 13.6126 30.4712 13.9267L32.356 12.1466L32.5654 12.356L28.9005 15.9162H28.6911C27.4346 15.3927 25.8639 14.6597 24.8168 14.1361C24.9215 13.7173 25.0262 12.7749 25.0262 11.623V7.12042H24.9215ZM29.2147 15.1832C27.9581 14.6597 26.911 14.1361 25.8639 13.6126C25.9686 13.2984 25.9686 12.7749 25.9686 11.623V6.911L25.2356 7.32984V11.623C25.2356 12.7749 25.2356 13.6126 25.1309 13.9267C26.0733 14.4503 27.4346 15.0785 28.6911 15.6021L29.2147 15.1832ZM27.8534 10.4712L29.9476 9.10995C29.2147 8.27225 28.4817 7.43456 27.8534 6.80628V10.4712ZM28.4817 5.86387L27.9581 6.28272C28.5864 7.01571 29.4241 7.95812 30.2618 8.90052L30.89 8.48168C29.9476 7.53927 29.1099 6.59686 28.4817 5.86387ZM114.66 18.2199C116.859 18.0105 119.058 17.2775 119.058 14.9738V7.53927L118.01 6.49215L116.859 7.53927V13.089L117.801 13.9267L115.707 15.8115H115.497L113.403 14.0314L113.927 13.5079V2.19895C113.927 1.36126 113.194 0.942408 112.775 0.837696V0.628272C112.984 0.52356 113.298 0.418848 113.717 0.418848C114.45 0.418848 115.079 0.837696 115.288 1.36126H115.393C115.812 0.732984 116.544 0.418848 117.173 0.418848C117.382 0.418848 117.592 0.418848 117.801 0.52356V0.732984C117.487 0.837696 116.859 1.25654 116.859 2.40838V7.12042L119.581 4.50262H119.791C120 4.71204 121.152 5.75916 121.466 5.96859C121.571 6.0733 121.675 6.0733 121.885 6.0733C122.094 6.0733 122.304 5.96859 122.513 5.86387V6.28272C122.304 6.49215 121.99 6.80628 121.99 7.32984V13.6126C121.99 16.4398 118.848 18.2199 114.66 18.534V18.2199ZM113.613 0.732984C113.927 0.942408 114.45 1.36126 114.45 2.09424V13.6126L114.031 14.0314L115.812 15.4974L116.335 15.0785L114.974 13.9267L115.183 13.7173V2.19895C115.079 1.25654 114.241 0.837696 113.613 0.732984ZM118.429 17.3822C119.267 16.8586 120.105 16.2304 120.105 14.9738V7.12042L118.848 5.75916L118.325 6.28272L119.372 7.43456V14.9738C119.476 16.0209 119.058 16.8586 118.429 17.3822ZM52.0419 7.12042C53.2984 6.49215 55.0785 5.44503 56.3351 4.50262H56.5445C57.3822 5.34031 58.534 6.70157 59.4764 7.53927V7.74869L54.9738 10.6806V12.5654C55.4974 12.8796 56.7539 13.5079 57.5916 13.822L59.4764 12.0419L59.6859 12.2513L56.0209 15.8115H55.8115C54.555 15.288 52.9843 14.555 51.9372 14.0314C52.0419 13.6126 52.1466 12.6702 52.1466 11.5183V7.12042H52.0419ZM56.2304 15.1832C54.9738 14.6597 53.9267 14.1361 52.8796 13.6126C52.9843 13.2984 52.9843 12.7749 52.9843 11.623V6.911L52.356 7.22513V11.5183C52.356 12.6702 52.356 13.5079 52.2513 13.822C53.1937 14.3456 54.555 14.9738 55.8115 15.4974L56.2304 15.1832ZM54.9738 10.3665L57.0681 9.00524C56.3351 8.16754 55.6021 7.32984 54.9738 6.70157V10.3665ZM55.6021 5.86387L54.9738 6.28272C55.6021 7.01571 56.4398 7.95812 57.2775 8.90052L57.9058 8.48168C57.0681 7.53927 56.2304 6.59686 55.6021 5.86387ZM63.6649 1.88482V12.8796C63.6649 13.2984 64.0838 13.822 64.5026 13.9267L65.1309 13.2984L65.3403 13.5079L63.0366 15.9162H62.8272C61.9895 15.7068 60.733 14.8691 60.733 13.5079V3.24607L60.1047 2.6178L59.3717 3.35079L59.1623 3.14136L61.7801 0.418848H61.9895L63.6649 1.88482ZM63.3508 15.0785C62.5131 14.8691 61.6754 14.3456 61.6754 13.1937V2.82723L60.733 1.88482L60.2094 2.40838L61.0471 3.14136V13.5079C61.0471 14.6597 61.9895 15.3927 62.8272 15.6021L63.3508 15.0785ZM66.3874 7.12042C67.644 6.49215 69.4241 5.44503 70.6806 4.50262H70.89C71.7277 5.34031 72.8796 6.70157 73.822 7.53927V7.74869L69.3194 10.6806V12.5654C69.7382 12.8796 71.0995 13.5079 71.9372 13.822L73.822 12.0419L74.0314 12.2513L70.3665 15.8115H70.1571C68.9005 15.288 67.3298 14.555 66.2827 14.0314C66.3874 13.6126 66.4921 12.6702 66.4921 11.5183V7.12042H66.3874ZM70.5759 15.1832C69.3194 14.6597 68.2722 14.1361 67.2251 13.6126C67.3298 13.2984 67.3298 12.7749 67.3298 11.623V6.911L66.7016 7.22513V11.5183C66.7016 12.6702 66.7016 13.5079 66.5969 13.822C67.5393 14.3456 68.9005 14.9738 70.1571 15.4974L70.5759 15.1832ZM69.3194 10.3665L71.4136 9.00524C70.6806 8.16754 69.9476 7.32984 69.3194 6.70157V10.3665ZM69.9476 5.86387L69.4241 6.28272C70.0524 7.01571 70.89 7.95812 71.7277 8.90052L72.2513 8.48168C71.4136 7.53927 70.5759 6.59686 69.9476 5.86387ZM88.5864 7.53927V12.8796C88.5864 13.2984 89.0052 13.822 89.4241 13.822L90.0523 13.1937L90.2618 13.4031L87.9581 15.8115H87.8534C87.0157 15.6021 85.7592 14.8691 85.7592 13.4031V7.32984L85.1309 6.70157L84.3979 7.32984L84.1885 7.12042L86.8063 4.50262H87.0157L88.6911 6.17801V7.12042L90.7853 4.60733H90.9948C91.4136 5.02618 92.0419 5.65445 92.6701 6.0733L90.89 8.16754C90.3665 7.74869 89.7382 7.12042 89.3194 6.80628L88.5864 7.53927ZM88.377 15.0785C87.5393 14.8691 86.7016 14.3456 86.7016 13.1937V6.911L85.8639 5.96859L85.3403 6.49215L86.0733 7.22513V13.4031C86.0733 14.555 87.0157 15.288 87.8534 15.4974L88.377 15.0785ZM89.5288 6.59686C89.8429 6.911 90.3665 7.43456 90.7853 7.74869L91.2042 7.22513C90.7853 6.911 90.1571 6.28272 89.8429 6.0733L89.5288 6.59686ZM95.3927 15.9162L92.8796 14.2408V10.8901C93.5078 10.4712 94.8691 9.5288 95.4974 9.10995C94.4503 8.58639 93.6126 7.95812 93.089 7.22513V7.01571C94.555 6.17801 95.7068 5.34031 96.5445 4.50262H96.7539C96.7539 4.50262 99.8953 5.96859 100 6.0733C100.209 6.17801 100.314 6.17801 100.419 6.17801C100.628 6.17801 100.838 6.0733 101.047 5.96859V6.28272C100.838 6.49215 100.524 6.80628 100.524 7.22513V12.7749C100.524 13.4031 101.047 13.7173 101.466 13.822L102.094 13.1937L102.304 13.4031L100 15.8115H99.8953C98.9529 15.6021 97.9058 14.6597 97.801 13.6126L95.6021 15.8115H95.3927V15.9162ZM95.9162 15.0785L93.822 13.7173V10.5759L93.1937 10.9948V14.0314L95.4974 15.4974L95.9162 15.0785ZM97.6963 9.63351V7.95812L94.6597 6.38743C94.4503 6.59686 93.6126 7.01571 93.4031 7.22513C94.1361 8.06283 96.0209 9.21466 97.6963 9.63351ZM100.419 15.0785C99.5811 14.7644 98.7435 14.2408 98.7435 13.089V7.32984L95.6021 5.75916C95.4974 5.86387 95.1832 6.0733 95.0785 6.17801L98.1152 7.74869V13.4031C98.1152 14.4503 99.1623 15.288 99.8953 15.6021L100.419 15.0785ZM97.6963 13.2984V9.94764C97.0681 9.73822 96.3351 9.5288 95.7068 9.21466V13.4031L96.8586 14.1361L97.6963 13.2984ZM74.9738 14.1361V7.12042L78.7434 4.50262H78.9529C79.6859 4.81675 82.0942 5.86387 82.3037 5.96859C82.4084 5.96859 82.5131 6.0733 82.7225 6.0733C82.9319 6.0733 83.1414 5.96859 83.4555 5.86387V6.28272C83.2461 6.49215 82.9319 6.911 82.9319 7.22513V13.1937C82.9319 14.555 83.2461 15.3927 83.7696 15.9162V16.1257C82.9319 16.9634 81.0471 18.9529 80.2094 19.8953H80.1047C79.267 19.4764 77.9058 19.0576 76.8586 19.0576C76.0209 19.0576 75.0785 19.267 74.4503 19.7906L74.2408 19.6859C74.8691 18.2199 76.2304 16.6492 78.0105 16.6492C79.0576 16.6492 80.5236 17.0681 81.7801 17.801C80.9424 16.8586 80.2094 15.0785 80.2094 13.7173L78.0105 15.8115H77.801L74.9738 14.1361ZM76.7539 18.2199C75.9162 18.2199 75.1832 18.6387 74.7644 19.1623V19.267C75.288 18.9529 75.8115 18.8482 76.7539 18.8482C77.801 18.8482 79.267 19.1623 80 19.5812L80.4188 19.0576C79.4764 18.6387 78.1152 18.2199 76.7539 18.2199ZM77.5916 15.6021L78.1152 15.1832L75.9162 13.6126V6.911L75.288 7.32984V14.0314L77.5916 15.6021ZM80.9424 6.911L77.801 5.65445V6.28272L80.2094 7.32984V13.6126C80.2094 14.9738 80.8377 16.4398 81.7801 17.5916L82.3037 17.0681C81.466 16.0209 80.9424 14.8691 80.9424 13.5079V6.911ZM80 13.2984V7.53927L77.9058 6.59686V13.1937L79.267 14.0314L80 13.2984ZM106.806 7.12042L109.529 4.50262H109.738C109.948 4.71204 111.204 5.86387 111.414 5.96859C111.518 6.0733 111.623 6.0733 111.728 6.0733C111.937 6.0733 112.147 5.96859 112.356 5.86387V6.28272C112.147 6.49215 111.832 6.911 111.832 7.32984V14.0314C110.681 14.3455 109.738 14.9738 108.691 16.1257H108.586L106.806 15.7068V17.1728L107.749 18.0105L105.55 19.8953H105.445L103.351 18.1152L103.874 17.4869V14.9738C103.665 14.9738 103.246 14.8691 103.037 14.7644V14.4503C103.246 14.3456 103.979 13.7173 103.979 13.1937V7.43456L103.351 6.80628L102.618 7.53927L102.408 7.32984L105.026 4.71204H105.236L106.911 6.38743V7.12042H106.806ZM104.188 17.6963L103.77 18.1152L105.445 19.5812L105.969 19.1623L104.607 18.0105L104.817 17.801V6.911L103.874 5.96859L103.455 6.38743L104.188 7.12042V17.6963ZM108.901 13.6126V7.53927L107.853 6.49215L106.702 7.53927V13.089C107.225 13.2984 108.691 13.5079 108.901 13.6126ZM108.586 15.8115C108.691 15.6021 108.901 15.3927 109.005 15.288L106.702 14.8691V15.4974L108.586 15.8115ZM108.063 6.38743L109.215 7.53927V13.6126L109.843 13.2984V7.12042L108.586 5.86387L108.063 6.38743ZM0.837696 9.73822C0.837696 7.01571 2.82722 5.2356 4.71204 4.39791L4.81675 4.60733C4.18848 5.34031 3.76963 6.0733 3.76963 7.74869C3.76963 9.63351 4.29319 10.8901 5.02618 11.7277C5.2356 11.4136 5.44503 10.9948 5.44503 10.5759V7.8534L8.79581 5.44503L8.90052 5.65445C8.6911 5.96859 8.48168 6.38743 8.48168 7.01571V8.79581C8.48168 10.0524 6.49215 11.4136 5.2356 11.8325C6.0733 12.6702 7.22513 12.9843 8.48168 12.9843C8.90052 12.9843 9.31937 12.9843 9.73822 12.8796V5.2356C8.58639 5.13089 7.53927 4.92147 6.59686 4.60733C5.54974 4.29319 4.50262 3.97906 3.66492 3.97906C2.30366 3.97906 0.628272 4.39791 0.628272 6.38743V7.01571L0.314136 7.12042C0.104712 6.49215 0 5.86387 0 5.34031C0 2.93194 1.7801 0.837696 4.60733 0.837696C5.75916 0.837696 6.91099 1.15183 7.95811 1.46597C9.00523 1.7801 10.0524 2.09424 11.0995 2.09424C11.623 2.09424 11.9372 1.7801 11.9372 1.25654C11.9372 0.732984 11.7277 0.52356 11.3089 0.418848V0.209424C12.5654 0.418848 13.822 1.15183 13.822 2.72251C13.9267 4.29319 12.5654 5.2356 10.2618 5.2356H10.0524V12.9843C11.5183 12.6702 12.5654 12.0419 13.2984 10.7853L13.5079 10.8901C12.6702 13.5079 10.6806 16.0209 7.22513 16.0209C3.76963 16.0209 0.837696 13.9267 0.837696 9.73822ZM10.2618 4.29319C7.74869 4.29319 5.44503 3.03665 3.66492 3.03665C2.40838 3.03665 1.04712 3.56021 0.628272 4.92147H0.732984C1.25654 3.97906 2.51309 3.66492 3.66492 3.66492C5.54974 3.66492 7.74869 4.92147 10.2618 4.92147C12.2513 4.92147 13.5079 4.18848 13.6126 2.6178H13.5079C13.2984 3.87435 12.2513 4.29319 10.2618 4.29319ZM3.03665 5.86387C2.09424 6.80628 1.25654 8.06283 1.25654 9.73822C1.25654 13.7173 3.87435 15.7068 7.32984 15.7068C9.42408 15.7068 10.8901 14.555 11.7277 13.7173L11.623 13.6126C10.6806 14.4503 9.31937 15.0785 7.22513 15.0785C4.50262 15.0785 1.88482 13.4031 1.88482 9.73822C1.88482 8.27225 2.40838 6.80628 3.03665 5.86387ZM6.38743 10.3665V7.43456L5.75916 7.95812V10.6806C5.75916 10.9948 5.65445 11.2042 5.65445 11.4136H5.75916C6.0733 11.0995 6.38743 10.7853 6.38743 10.3665ZM38.1152 9.73822C38.1152 7.01571 40.1047 5.2356 41.9895 4.39791L42.0942 4.60733C41.3613 5.44503 40.9424 6.17801 40.9424 7.74869C40.9424 9.63351 41.466 10.8901 42.1989 11.7277C42.4084 11.4136 42.6178 10.9948 42.6178 10.5759V7.8534L46.0733 5.34031L46.178 5.54974C45.8639 5.96859 45.7592 6.38743 45.7592 7.01571V8.79581C45.7592 10.0524 43.7696 11.4136 42.5131 11.8325C43.3508 12.6702 44.5026 12.9843 45.7592 12.9843C46.178 12.9843 46.5969 12.9843 47.0157 12.8796V5.2356C45.8639 5.13089 44.8168 4.92147 43.8743 4.60733C42.8272 4.29319 41.7801 3.97906 40.9424 3.97906C39.5811 3.97906 37.9058 4.39791 37.9058 6.38743V7.01571L37.6963 7.12042C37.4869 6.49215 37.3822 5.86387 37.3822 5.34031C37.3822 2.93194 39.1623 0.837696 41.9895 0.837696C43.1414 0.837696 44.2932 1.15183 45.3403 1.46597C46.3874 1.7801 47.4346 2.09424 48.4817 2.09424C49.0052 2.09424 49.3194 1.7801 49.3194 1.25654C49.3194 0.732984 49.1099 0.52356 48.6911 0.418848V0.209424C49.9476 0.418848 51.2042 1.15183 51.2042 2.72251C51.2042 4.60733 49.8429 5.44503 47.5393 5.44503H47.3298V13.1937C48.7958 12.8796 49.8429 12.2513 50.5759 10.9948L50.7853 11.0995C49.9476 13.7173 47.9581 16.2304 44.5026 16.2304C41.0471 16.0209 38.1152 13.9267 38.1152 9.73822ZM47.5393 4.29319C45.0262 4.29319 42.7225 3.03665 40.9424 3.03665C39.7906 3.03665 38.4293 3.56021 37.9058 4.92147H38.0105C38.534 3.97906 39.7906 3.66492 40.9424 3.66492C42.8272 3.66492 45.0262 4.92147 47.5393 4.92147C49.5288 4.92147 50.7853 4.18848 50.89 2.6178H50.7853C50.4712 3.87435 49.5288 4.29319 47.5393 4.29319ZM40.3141 5.86387C39.3717 6.80628 38.534 8.06283 38.534 9.73822C38.534 13.7173 41.1518 15.7068 44.6073 15.7068C46.7016 15.7068 48.1675 14.555 49.0052 13.7173L48.9005 13.6126C47.9581 14.4503 46.5969 15.0785 44.5026 15.0785C41.7801 15.0785 39.1623 13.4031 39.1623 9.73822C39.1623 8.27225 39.6859 6.80628 40.3141 5.86387ZM43.6649 10.3665V7.43456L43.0366 7.8534V10.5759C43.0366 10.8901 42.9319 11.0995 42.9319 11.3089H43.0366C43.3508 11.0995 43.6649 10.7853 43.6649 10.3665Z" fill="var(--fill-0, #F5F5F2)" fill-opacity="0.5"/>
</g>
<defs>
<clipPath id="clip0_0_4">
<rect width="122.513" height="20" fill="white"/>
</clipPath>
</defs>
</svg>
