<svg width="40" height="40" viewBox="0 0 40 40" fill="none" xmlns="http://www.w3.org/2000/svg">
<path d="M29.1712 20.3443C30.4046 19.3682 31.1872 17.8918 31.1872 15.6903C31.1872 14.1508 30.5661 12.8403 29.3239 12.8403C28.5377 12.8403 27.8154 13.4614 27.8154 14.4126C27.8154 15.8873 29.4206 16.5093 29.4206 18.2786C29.4206 20.9317 25.5883 21.7507 23.1313 21.7507C20.8705 21.7507 20.1828 21.2591 18.8066 21.2591C16.9725 21.2591 15.5963 22.8323 15.5963 24.6007C15.5963 26.2387 17.0382 27.5821 18.7737 27.5821C21.4933 27.5821 23.0328 24.1748 24.7365 24.1748C25.2609 24.1748 25.4241 24.5031 25.4241 24.9938C25.4241 27.4836 23.2626 30.3336 19.5608 30.3336C15.0399 30.3336 12.4188 27.4179 12.4188 24.1091C12.4188 21.0923 14.417 19.9494 16.252 19.9494C18.0204 19.9494 19.4623 20.8988 21.5262 20.8988C23.5901 20.8988 26.2431 19.7853 26.2431 17.6557C26.2431 15.8217 24.9326 15.3957 24.1136 15.3957C21.9521 15.3957 21.1988 16.378 19.4951 16.378C18.3487 16.378 16.1863 15.2644 16.1863 13.102C16.1863 10.8749 17.9876 9.13842 20.543 9.13842C21.9521 9.13842 22.8367 9.62999 22.8367 10.5146C22.8367 11.4641 21.5945 12.0541 21.5945 13.3319C21.5945 14.1508 22.1837 14.8057 23.134 14.8057C24.1819 14.8057 24.7391 13.7906 24.7391 12.6433C24.7391 10.1872 22.8713 8.77817 20.1198 8.77817C20.0151 8.77817 19.9077 8.77817 19.7986 8.78438C19.2218 3.35226 14.1943 0 8.85093 0H0V0.388643C2.19521 0.388643 3.04703 1.0772 3.04703 4.25466V16.7391C3.04703 18.8021 2.19521 19.2609 0 19.2609V19.6539H9.30435C9.83319 19.6539 10.3461 19.6303 10.8429 19.583C9.86429 20.5695 9.31183 21.9006 9.30435 23.2902C9.30435 27.6477 13.4969 30.7267 19.5581 30.7267C20.8001 30.7297 22.0325 30.5087 23.1961 30.0745V37.0843C23.1961 39.1482 22.3443 39.6069 20.1491 39.6069V40H29.4508C35.7409 40 40 36.5599 40 30.1721C40 24.2059 34.803 20.4232 29.1712 20.3443ZM5.53682 16.6735V2.8811C5.53682 0.817214 6.32298 0.359361 8.77995 0.359361C12.5794 0.359361 16.9255 3.74002 17.2884 9.19166C15.1349 9.82254 13.1038 11.2236 13.1038 13.7249C13.1038 16.2476 15.2662 17.4596 17.6291 17.4596C19.7258 17.4596 20.7746 16.2476 21.8225 16.2476C22.8705 16.2476 23.1943 17.2298 23.1943 18.1801C23.1943 19.1304 22.5386 20.5386 21.1633 20.5386C19.0009 20.5386 17.0355 17.9831 14.3487 17.9831C13.4614 17.9831 12.5359 18.2964 11.7249 18.8447C10.971 19.1225 10.1735 19.2634 9.37001 19.2609C6.15794 19.2609 5.53682 18.6717 5.53682 16.6735ZM29.5164 39.6078C26.3061 39.6078 25.6841 39.0177 25.6841 37.0195V28.7107C27.5013 27.3416 28.567 25.5244 28.567 24.0772C28.567 23.0284 27.9459 22.3736 27.0266 22.3736C24.3407 22.3736 22.5058 25.9432 20.4437 25.9432C19.3957 25.9432 18.7409 25.1571 18.7409 24.3052C18.7409 23.4862 19.2316 22.2085 21.1979 22.2085C23.874 22.2085 26.7063 21.9485 28.6699 20.7001H28.9938C32.8598 20.7001 37.4463 24.3691 37.4463 30.2325C37.4445 35.575 33.8421 39.6078 29.5164 39.6078Z" fill="#140803"/>
</svg>
